<?xml version="1.0" encoding="UTF-8"?>
<!-- This file is generated by pnpm build:icons -->
<svg xmlns="http://www.w3.org/2000/svg" xmlns:xlink="http://www.w3.org/1999/xlink" width="0" height="0">
<defs>
<symbol viewBox="0 0 24 24" fill="none" stroke="currentColor" stroke-width="2" stroke-linecap="round" stroke-linejoin="round" id="eye-off">
  <path d="M9.88 9.88a3 3 0 1 0 4.24 4.24" ></path>
  <path d="M10.73 5.08A10.43 10.43 0 0 1 12 5c7 0 10 7 10 7a13.16 13.16 0 0 1-1.67 2.68" ></path>
  <path d="M6.61 6.61A13.526 13.526 0 0 0 2 12s3 7 10 7a9.74 9.74 0 0 0 5.39-1.61" ></path>
  <line x1="2" x2="22" y1="2" y2="22" ></line>
</symbol>
<symbol viewBox="0 0 24 24" fill="none" stroke="currentColor" stroke-width="2" stroke-linecap="round" stroke-linejoin="round" id="eye">
  <path d="M2 12s3-7 10-7 10 7 10 7-3 7-10 7-10-7-10-7Z" ></path>
  <circle cx="12" cy="12" r="3" ></circle>
</symbol>
<symbol viewBox="0 0 24 24" fill="none" stroke="currentColor" stroke-width="2" stroke-linecap="round" stroke-linejoin="round" id="home">
  <path d="m3 9 9-7 9 7v11a2 2 0 0 1-2 2H5a2 2 0 0 1-2-2z" ></path>
  <polyline points="9 22 9 12 15 12 15 22" ></polyline>
</symbol>
<symbol viewBox="0 0 24 24" fill="none" stroke="currentColor" stroke-width="2" stroke-linecap="round" stroke-linejoin="round" id="log-out">
  <path d="M9 21H5a2 2 0 0 1-2-2V5a2 2 0 0 1 2-2h4" ></path>
  <polyline points="16 17 21 12 16 7" ></polyline>
  <line x1="21" x2="9" y1="12" y2="12" ></line>
</symbol>
<symbol viewBox="0 0 24 24" fill="none" stroke="currentColor" stroke-width="2" stroke-linecap="round" stroke-linejoin="round" id="mail">
  <rect width="20" height="16" x="2" y="4" rx="2" ></rect>
  <path d="m22 7-8.97 5.7a1.94 1.94 0 0 1-2.06 0L2 7" ></path>
</symbol>
<symbol viewBox="0 0 24 24" fill="none" stroke="currentColor" stroke-width="2" stroke-linecap="round" stroke-linejoin="round" id="users">
  <path d="M16 21v-2a4 4 0 0 0-4-4H6a4 4 0 0 0-4 4v2" ></path>
  <circle cx="9" cy="7" r="4" ></circle>
  <path d="M22 21v-2a4 4 0 0 0-3-3.87" ></path>
  <path d="M16 3.13a4 4 0 0 1 0 7.75" ></path>
</symbol>
</defs>
</svg>
